<?xml version="1.0" standalone="no"?>
<!DOCTYPE svg PUBLIC "-//W3C//DTD SVG 20010904//EN"
 "http://www.w3.org/TR/2001/REC-SVG-20010904/DTD/svg10.dtd">
<svg version="1.0" xmlns="http://www.w3.org/2000/svg"
 width="594.000000pt" height="41.000000pt" viewBox="0 0 594.000000 41.000000"
 preserveAspectRatio="xMidYMid meet">

<g transform="translate(0.000000,41.000000) scale(0.100000,-0.100000)"
fill="#000000" stroke="none">
<path d="M387 363 c-4 -3 -7 -75 -7 -160 l0 -153 96 0 c72 0 95 3 92 13 -3 8
-32 13 -86 15 l-82 3 0 64 0 65 80 0 c47 0 80 4 80 10 0 6 -33 10 -80 10 l-80
0 0 55 0 55 85 0 c69 0 85 3 85 15 0 12 -16 15 -88 15 -49 0 -92 -3 -95 -7z"/>
<path d="M1644 357 c-2 -7 -3 -78 -2 -157 2 -104 6 -145 16 -148 9 -3 12 13
12 57 l0 61 45 0 c80 0 125 36 125 100 0 44 -16 69 -55 86 -44 18 -134 19
-141 1z m153 -39 c51 -48 10 -117 -75 -126 l-52 -5 0 77 0 76 52 0 c39 0 57
-5 75 -22z"/>
<path d="M2990 352 c-42 -22 -80 -90 -80 -145 0 -50 33 -113 73 -137 20 -13
50 -20 80 -20 102 0 162 59 162 162 0 64 -19 97 -75 136 -41 28 -111 29 -160
4z m157 -29 c78 -51 68 -194 -16 -238 -104 -53 -218 41 -191 158 20 92 126
133 207 80z"/>
<path d="M4395 356 c-58 -26 -95 -85 -95 -152 0 -43 18 -80 60 -119 29 -27 37
-30 100 -30 58 0 73 4 92 22 30 31 19 36 -27 13 -44 -23 -71 -25 -112 -9 -129
49 -112 234 24 263 23 5 46 1 79 -13 26 -12 49 -19 52 -17 9 9 -11 28 -44 42
-41 17 -90 17 -129 0z"/>
<path d="M5840 301 l0 -71 -85 0 -85 0 0 65 c0 37 -4 65 -10 65 -6 0 -10 -58
-10 -155 0 -97 4 -155 10 -155 6 0 10 33 10 80 l0 80 85 0 85 0 0 -80 c0 -47
4 -80 10 -80 6 0 10 58 10 154 0 93 -4 157 -10 161 -6 4 -10 -20 -10 -64z"/>
</g>
</svg>
