<?xml version="1.0" standalone="no"?>
<!DOCTYPE svg PUBLIC "-//W3C//DTD SVG 20010904//EN"
 "http://www.w3.org/TR/2001/REC-SVG-20010904/DTD/svg10.dtd">
<svg version="1.0" xmlns="http://www.w3.org/2000/svg"
 width="575.000000pt" height="447.000000pt" viewBox="0 0 575.000000 447.000000"
 preserveAspectRatio="xMidYMid meet">
<metadata>
Created by potrace 1.16, written by Peter Selinger 2001-2019
</metadata>
<g transform="translate(0.000000,447.000000) scale(0.100000,-0.100000)"
fill="#565656" stroke="none">
<path d="M2580 4459 c-888 -76 -1664 -461 -2122 -1052 -358 -463 -485 -1022
-352 -1549 33 -132 66 -222 132 -361 l55 -117 84 0 83 0 -30 52 c-256 436
-302 962 -124 1421 131 339 365 638 696 887 404 306 909 499 1473 565 145 17
494 32 519 22 20 -8 17 -14 -84 -187 -37 -63 -127 -218 -200 -345 -73 -126
-156 -270 -185 -320 -28 -49 -166 -288 -305 -530 -139 -242 -281 -487 -315
-545 -34 -58 -117 -202 -185 -320 -68 -118 -168 -291 -222 -385 l-99 -170 972
-3 c535 -1 974 0 976 2 3 2 -12 34 -33 70 l-38 66 -818 2 -817 3 155 270 c86
149 206 358 268 465 62 107 173 299 246 425 73 127 208 361 300 520 92 160
243 421 335 580 92 160 196 341 232 403 36 62 63 115 60 118 -20 20 -467 29
-657 13z"/>
<path d="M3358 4365 c-42 -75 -54 -65 102 -90 299 -50 664 -174 920 -312 603
-326 997 -805 1121 -1365 15 -67 22 -145 26 -278 5 -159 2 -202 -16 -309 -59
-347 -226 -668 -491 -945 -115 -120 -266 -250 -283 -243 -7 3 -72 110 -146
238 -74 129 -235 407 -357 619 -123 212 -425 735 -672 1163 -247 428 -453 779
-457 780 -7 2 -125 -197 -405 -683 -113 -197 -316 -548 -488 -847 -45 -78 -82
-144 -82 -147 0 -3 35 -6 78 -6 l77 0 339 588 c470 813 477 825 487 815 4 -4
39 -62 77 -128 125 -219 587 -1019 672 -1165 34 -58 181 -314 678 -1175 79
-137 148 -254 153 -259 26 -28 451 351 574 513 359 473 486 995 369 1520 -81
362 -265 684 -558 976 -397 396 -930 664 -1559 784 -59 12 -111 21 -116 21 -4
0 -24 -29 -43 -65z"/>
<path d="M3086 2766 c-29 -45 -56 -96 -56 -107 0 -6 26 -57 59 -113 32 -55
214 -371 404 -701 l347 -600 -1726 -5 -1725 -5 43 -60 c55 -77 81 -107 208
-238 394 -407 992 -705 1630 -811 367 -61 807 -62 1187 -1 207 33 492 114 718
205 107 42 395 191 395 203 0 8 -53 102 -65 115 -2 2 -39 -17 -82 -42 -162
-93 -412 -195 -643 -261 -269 -77 -521 -114 -830 -122 -466 -12 -871 57 -1285
218 -354 138 -635 314 -878 550 l-112 108 1703 1 c936 0 1702 2 1702 5 0 2
-38 68 -83 147 -46 79 -180 310 -297 513 -205 357 -453 786 -547 948 -25 42
-46 77 -48 77 -1 0 -10 -11 -19 -24z"/>
</g>
</svg>
